PathFileType	4	(X/Y/Z)	C:/Users/opensim2020/Desktop/walking_exp_matlab/subject03_walking15_straight_01.trc	
DataRate	CameraRate	NumFrames	NumMarkers	Units	OrigDataRate	OrigDataStartFrame	OrigNumFrames	
100.00	100.00	8	47	mm	100.00	672	196	
Frame#	Time	LFHD			RFHD			LBHD			RBHD			C7			T10			CLAV			STRN			RBAK			LSHO			LUPA			LELB			LFRM			LWRA			LWRB			LFIN			RSHO			RUPA			RELB			RFRM			RWRA			RWRB			RFIN			LASI			RASI			LPSI			RPSI			LTHI			LKNE			LTIB			LANK			LHEE			LTOE			RTHI			RKNE			RTIB			RANK			RHEE			RTOE			*39			*40			*41			*42			*43			*44			*45			*46			
		X1	Y1	Z1	X2	Y2	Z2	X3	Y3	Z3	X4	Y4	Z4	X5	Y5	Z5	X6	Y6	Z6	X7	Y7	Z7	X8	Y8	Z8	X9	Y9	Z9	X10	Y10	Z10	X11	Y11	Z11	X12	Y12	Z12	X13	Y13	Z13	X14	Y14	Z14	X15	Y15	Z15	X16	Y16	Z16	X17	Y17	Z17	X18	Y18	Z18	X19	Y19	Z19	X20	Y20	Z20	X21	Y21	Z21	X22	Y22	Z22	X23	Y23	Z23	X24	Y24	Z24	X25	Y25	Z25	X26	Y26	Z26	X27	Y27	Z27	X28	Y28	Z28	X29	Y29	Z29	X30	Y30	Z30	X31	Y31	Z31	X32	Y32	Z32	X33	Y33	Z33	X34	Y34	Z34	X35	Y35	Z35	X36	Y36	Z36	X37	Y37	Z37	X38	Y38	Z38	X39	Y39	Z39	X40	Y40	Z40	X41	Y41	Z41	X42	Y42	Z42	X43	Y43	Z43	X44	Y44	Z44	X45	Y45	Z45	X46	Y46	Z46	X47	Y47	Z47	

172	1.710	1343.80249	1075.73218	1621.85669	1475.12195	1089.71411	1643.24194	1370.13843	960.67548	1556.95679	1497.56946	978.59296	1577.76660	1425.01355	965.13013	1407.57971	1428.18457	960.08301	1095.59448	1436.40540	1092.52649	1344.41309	1439.00305	1153.09546	1183.94873	1516.75903	921.71265	1228.21350	1277.05054	1059.20227	1374.26208	1207.46521	1056.75159	1174.37329	1196.43713	1054.63232	1050.77893	1194.88208	1061.20483	920.28668	1220.69434	1047.28052	798.93134	1163.55444	1044.63635	810.47314	1171.15979	1025.66772	723.94214	1590.49658	1026.99976	1368.11145	1672.14404	1049.25012	1150.60596	1691.27380	1083.38745	1043.95569	1697.47119	1135.14319	917.26648	1666.57214	1195.08435	836.68304	1704.55078	1160.67651	819.85510	1698.57605	1206.00330	761.11169	1328.01636	1139.29968	943.93085	1563.63293	1110.79102	934.46881	1357.64844	972.06104	963.82007	1506.32263	956.31317	963.28943	1287.54089	1126.53247	640.65369	1342.28967	1156.08618	470.84381	1342.40051	1108.69666	275.04752	1391.98425	1079.72205	71.08079	1427.64148	1035.87915	37.82850	1414.96069	1228.23181	36.54776	1607.34192	1073.76111	635.32825	1591.88403	1110.47192	458.01889	1589.31055	959.70648	341.98450	1542.51636	787.18011	215.69595	1486.18884	740.76660	230.66524	1527.68176	831.04437	78.43112	1399.64270	989.56342	1672.33411																					 
173	1.720	1342.71472	1088.20911	1623.02209	1474.18103	1102.35510	1644.57202	1369.19397	973.18811	1558.15417	1496.64539	991.21198	1579.05701	1424.48071	977.60486	1408.98230	1426.84241	971.88843	1096.99097	1435.71741	1104.93433	1345.58105	1438.25171	1165.30188	1185.01978	1515.31934	933.95392	1229.50952	1276.23499	1071.16345	1375.34924	1207.00757	1072.04456	1175.49426	1195.76770	1072.15039	1051.85925	1194.19006	1081.57886	921.62366	1219.67151	1071.26294	800.16718	1162.38416	1067.71130	811.76886	1170.42334	1055.55005	724.71899	1589.81006	1039.29211	1369.30383	1671.44141	1060.36780	1151.53540	1690.00891	1093.31104	1044.18848	1696.27930	1141.28625	915.97272	1665.15063	1198.41602	833.24591	1703.75244	1164.06250	817.76233	1697.33618	1207.24658	757.39612	1326.68286	1150.84644	944.65460	1562.44849	1123.25415	936.39801	1357.16284	982.73291	964.96765	1505.61365	968.53308	964.95178	1287.47241	1134.58545	640.60815	1341.76965	1160.26184	470.02863	1341.95422	1110.72522	274.96780	1391.84778	1079.77295	71.21922	1427.29602	1035.84045	38.20317	1414.89172	1228.32153	36.50712	1606.22754	1093.67358	637.59314	1590.65295	1135.22827	461.50912	1588.60852	986.00952	343.98325	1542.40100	816.17548	213.69984	1486.29529	768.43555	226.37083	1529.35950	865.61609	78.72415	1398.46130	1002.13379	1673.50415																					 
174	1.730	1341.72583	1100.69800	1624.00684	1472.79785	1114.72339	1645.50647	1368.31641	985.66003	1559.20166	1495.76013	1003.79419	1580.23645	1423.77161	990.13440	1410.22485	1425.81604	983.88623	1098.22925	1434.99512	1117.34412	1346.64856	1437.48376	1177.52563	1186.02515	1514.25623	946.19489	1230.88245	1275.45520	1082.96704	1376.44849	1206.43298	1087.01050	1176.77515	1195.05786	1089.87244	1053.29211	1193.69653	1102.17310	923.26233	1218.86572	1095.82117	802.29138	1162.38049	1091.18542	813.04089	1169.88416	1085.98584	726.35883	1589.07520	1051.58179	1370.48059	1670.20959	1071.19434	1152.25867	1688.75842	1103.03271	1044.50842	1695.13721	1147.52283	914.89111	1663.71155	1201.44800	830.11908	1703.07544	1167.25244	816.01892	1696.14001	1208.23730	754.00610	1325.17102	1162.21252	945.31946	1561.05481	1135.89783	938.48962	1356.68652	994.21185	966.23499	1505.02490	980.85413	966.52045	1286.99011	1142.28198	640.41339	1341.32056	1164.25952	469.24191	1341.64758	1112.26355	274.93747	1391.86133	1079.82410	71.31788	1427.26453	1035.85156	38.40960	1414.84424	1228.36755	36.41361	1605.27795	1113.15881	639.97546	1589.26392	1158.99597	465.14832	1587.66431	1012.58801	345.11734	1542.35437	846.03156	210.14182	1486.41357	797.06177	220.21675	1530.82593	901.67670	78.08118	1397.74609	1014.75153	1674.85559																					 
175	1.740	1340.78564	1113.24902	1624.90833	1471.82666	1127.31836	1646.44373	1367.47791	998.15369	1560.18030	1494.87549	1016.32629	1581.26306	1423.09888	1002.60138	1411.33276	1424.81177	995.81952	1099.44434	1434.19275	1129.63794	1347.57385	1436.60535	1189.59875	1186.83704	1513.58069	958.33380	1232.37708	1274.68665	1094.71008	1377.46082	1205.77429	1101.39441	1178.09387	1194.50476	1107.41455	1054.97937	1193.30127	1123.08691	925.10187	1219.40381	1118.60559	803.77161	1162.33679	1115.04089	814.69104	1169.44031	1116.91443	728.76508	1588.37317	1064.04590	1371.67041	1669.15320	1082.04187	1153.00293	1687.28906	1112.56335	1044.78516	1693.88293	1153.42969	913.99976	1662.30017	1204.29895	827.24390	1702.42371	1170.32483	814.55389	1695.05920	1209.08020	750.98376	1323.61865	1173.58447	945.95880	1559.71741	1149.38513	940.91949	1355.91418	1006.67773	966.72363	1504.39551	993.26044	968.09857	1286.75720	1149.25330	640.05811	1340.95911	1167.89563	468.54102	1341.42419	1113.81213	274.90103	1391.88025	1079.97168	71.52628	1427.31372	1035.87585	38.67862	1414.82727	1228.48560	36.38136	1604.30640	1132.13269	642.40948	1588.06372	1182.44287	469.04230	1586.72974	1039.38538	345.41428	1542.28748	876.73303	205.20935	1486.44702	826.71875	212.38052	1532.40833	939.33209	76.72096	1396.64758	1027.34668	1675.67346																					 
176	1.750	1339.85083	1125.73950	1625.55762	1470.81287	1139.90845	1647.20850	1366.72510	1010.58173	1561.03015	1494.08264	1028.98962	1582.15222	1422.67615	1014.73749	1412.31689	1423.85059	1007.67810	1100.44177	1433.37305	1141.92688	1348.35046	1435.65332	1201.64197	1187.55554	1512.99451	970.52496	1233.70679	1273.88110	1106.40881	1378.40649	1204.91711	1115.33801	1179.38330	1193.73047	1124.66895	1056.33655	1192.93506	1144.07336	927.11005	1219.36597	1143.68457	806.10333	1162.77112	1139.24365	816.47485	1169.69177	1147.05115	731.97992	1587.57874	1076.60938	1372.71252	1668.14417	1092.76270	1153.71033	1685.78699	1121.85144	1044.97839	1692.56335	1159.16406	913.16565	1660.90527	1207.07507	824.56244	1701.71350	1173.34973	813.26538	1694.15735	1209.93457	748.18744	1321.94885	1184.78284	946.31445	1557.81177	1161.60413	942.71277	1355.77881	1019.32788	967.51807	1503.75171	1005.67145	969.44067	1286.42273	1155.94080	639.86548	1340.51685	1171.55347	467.81891	1341.20630	1115.61597	274.89694	1391.86133	1080.02100	71.54396	1427.28381	1035.96326	39.02695	1414.99023	1228.72021	36.33568	1603.33374	1150.52649	644.99988	1587.05493	1205.56055	473.07977	1585.79028	1066.29980	344.90656	1542.17725	908.40479	198.97865	1486.57532	857.60089	203.10121	1533.16980	977.78430	74.17455	1396.01306	1039.80505	1676.84778																					 
177	1.760	1338.88159	1138.19971	1626.18091	1469.87537	1152.50977	1647.82996	1365.87024	1023.05554	1561.70984	1493.17407	1041.47290	1582.83691	1421.94800	1026.99475	1412.96228	1422.91492	1019.33759	1101.31787	1432.36328	1154.02881	1348.93164	1434.57898	1213.55994	1188.08105	1512.59351	982.72687	1234.89941	1273.11157	1117.96973	1379.13770	1203.83801	1128.97302	1180.73010	1192.86438	1141.77966	1058.11670	1192.58948	1165.12817	929.33521	1217.92041	1170.92346	809.23895	1163.03003	1163.80139	818.59052	1170.01172	1177.28687	735.57983	1586.81714	1089.34619	1373.55383	1667.34583	1103.41577	1154.28357	1684.36621	1130.98401	1044.99854	1691.36975	1164.96680	912.33801	1659.64282	1209.91016	822.06445	1701.05115	1176.38611	812.08313	1693.20288	1210.62598	745.62695	1320.28955	1195.96655	946.52496	1556.07837	1174.21484	944.48187	1354.59851	1030.60071	967.90198	1503.13354	1018.07184	970.64203	1286.22253	1162.17737	639.43207	1340.05884	1175.22363	467.28308	1341.09387	1117.49475	274.91388	1391.92920	1080.17053	71.74157	1427.27832	1036.04663	39.41563	1414.90088	1228.76404	36.28478	1602.46460	1166.10962	647.71521	1585.73425	1227.70715	476.98709	1584.90662	1093.14771	343.64359	1541.99976	941.00201	191.43294	1486.41931	889.62354	192.49918	1534.00122	1017.09137	71.11391	1395.04688	1052.41040	1677.42273																					 
178	1.770	1337.95715	1150.64929	1626.52612	1468.96118	1165.12488	1648.25110	1365.08923	1035.51404	1562.20496	1492.36047	1054.04016	1583.38892	1421.38818	1039.22632	1413.57483	1421.94214	1031.02856	1101.96289	1431.41406	1166.25146	1349.38171	1433.35645	1225.44397	1188.42761	1512.47290	994.82867	1236.20605	1272.34021	1129.48853	1379.74011	1202.59924	1142.12585	1182.05627	1191.81433	1158.49646	1059.60022	1192.20093	1186.30737	931.78223	1219.41284	1196.03381	811.86127	1163.38110	1188.72229	821.04877	1170.45557	1207.44568	739.80994	1586.04517	1102.22546	1374.15820	1666.27905	1113.88721	1154.52051	1683.04150	1139.85583	1044.83691	1690.18005	1170.75146	911.43951	1658.46436	1212.80139	819.68231	1700.39709	1179.46277	810.92957	1692.18506	1211.29749	742.94678	1318.44604	1206.99670	946.52234	1554.28333	1187.08093	946.01538	1353.85986	1042.46680	968.15405	1502.51770	1030.44861	971.53809	1286.06763	1168.40491	638.93970	1339.63025	1178.54932	466.48929	1340.94116	1119.25000	274.95065	1391.97290	1080.30090	72.00191	1427.26819	1036.80920	39.75874	1414.85583	1228.72668	36.15331	1600.96362	1182.40649	650.95764	1584.30420	1249.25171	480.74091	1584.15051	1120.05688	341.85870	1541.58569	974.41852	182.97745	1486.01208	922.83203	180.82195	1534.78003	1057.22766	67.55310	1393.97522	1065.01477	1677.74756																					 
179	1.780	1337.09399	1163.14478	1626.80530	1468.05713	1177.72632	1648.47095	1364.30334	1047.92419	1562.55542	1491.56348	1066.62146	1583.75745	1420.92456	1051.46838	1414.15173	1420.99622	1042.72778	1102.49011	1430.37244	1178.39197	1349.63269	1431.90454	1237.01367	1188.48547	1512.21057	1007.00836	1237.11133	1271.52161	1140.83728	1380.11890	1201.08850	1154.96265	1183.14661	1190.26733	1174.80481	1061.02612	1191.73132	1207.52722	934.50604	1218.88428	1223.16846	815.90051	1164.41443	1213.75793	823.54596	1171.26111	1237.19543	744.27631	1585.31201	1115.28174	1374.53784	1665.10693	1124.35388	1154.51758	1681.64099	1148.56873	1044.36121	1688.99878	1176.28455	910.30908	1657.37573	1215.80078	817.25446	1699.81482	1182.54333	809.70276	1691.49219	1212.17273	740.65009	1316.63672	1218.00085	946.59094	1552.57373	1199.97693	947.25653	1353.25476	1053.86963	968.00989	1501.86304	1042.87512	972.12927	1285.70361	1174.57727	638.60620	1339.12488	1181.87732	465.94745	1340.87732	1120.68408	275.10571	1391.97021	1080.42688	72.31743	1427.23535	1036.18115	40.42122	1414.83020	1228.83447	36.09360	1600.43994	1202.85425	651.92786	1582.83936	1270.08350	484.30911	1583.34448	1146.94714	339.52560	1541.33533	1008.98627	173.60718	1485.69641	957.35785	168.30492	1535.58936	1098.25012	63.99763	1393.14661	1077.61365	1678.11108																					 
